<svg xmlns="http://www.w3.org/2000/svg" viewBox="0 0 256 256" width="256" height="256">
  <rect width="256" height="256" rx="44" fill="#171a1f"></rect>
  <rect x="40" y="40" width="176" height="176" rx="8" fill="none" stroke="#2d333d" stroke-width="2"></rect>

  <g transform="translate(56 60)">
    <rect width="144" height="36" rx="3" fill="#2a2f38" stroke="#3d4452" stroke-width="1"></rect>
    <rect x="0" y="6" width="8" height="24" fill="#3d4452"></rect>
    <rect x="136" y="6" width="8" height="24" fill="#3d4452"></rect>
    <circle cx="4" cy="10" r="1.2" fill="#0e1116"></circle>
    <circle cx="4" cy="26" r="1.2" fill="#0e1116"></circle>
    <circle cx="140" cy="10" r="1.2" fill="#0e1116"></circle>
    <circle cx="140" cy="26" r="1.2" fill="#0e1116"></circle>
    <g opacity="0.6">
      <line x1="14" y1="10" x2="14" y2="26" stroke="#0e1116" stroke-width="1.2"></line><line x1="19" y1="10" x2="19" y2="26" stroke="#0e1116" stroke-width="1.2"></line><line x1="24" y1="10" x2="24" y2="26" stroke="#0e1116" stroke-width="1.2"></line><line x1="29" y1="10" x2="29" y2="26" stroke="#0e1116" stroke-width="1.2"></line><line x1="34" y1="10" x2="34" y2="26" stroke="#0e1116" stroke-width="1.2"></line><line x1="39" y1="10" x2="39" y2="26" stroke="#0e1116" stroke-width="1.2"></line><line x1="44" y1="10" x2="44" y2="26" stroke="#0e1116" stroke-width="1.2"></line><line x1="49" y1="10" x2="49" y2="26" stroke="#0e1116" stroke-width="1.2"></line><line x1="54" y1="10" x2="54" y2="26" stroke="#0e1116" stroke-width="1.2"></line><line x1="59" y1="10" x2="59" y2="26" stroke="#0e1116" stroke-width="1.2"></line><line x1="64" y1="10" x2="64" y2="26" stroke="#0e1116" stroke-width="1.2"></line><line x1="69" y1="10" x2="69" y2="26" stroke="#0e1116" stroke-width="1.2"></line><line x1="74" y1="10" x2="74" y2="26" stroke="#0e1116" stroke-width="1.2"></line><line x1="79" y1="10" x2="79" y2="26" stroke="#0e1116" stroke-width="1.2"></line>
    </g>
    <circle cx="92" cy="18" r="2.5" fill="#ff5e5e"></circle>
    <circle cx="92" cy="18" r="5" fill="#ff5e5e" opacity="0.3"></circle>
    <rect x="104" y="8" width="28" height="20" rx="2" fill="#0e1116"></rect>
    <text x="118" y="22" text-anchor="middle" font-family="ui-monospace, &#39;JetBrains Mono&#39;, Menlo, Consolas, monospace" font-weight="700" font-size="14" fill="#e6e8ec">W</text>
  </g>
  <g transform="translate(56 116)">
    <rect width="144" height="36" rx="3" fill="#2a2f38" stroke="#3d4452" stroke-width="1"></rect>
    <rect x="0" y="6" width="8" height="24" fill="#3d4452"></rect>
    <rect x="136" y="6" width="8" height="24" fill="#3d4452"></rect>
    <circle cx="4" cy="10" r="1.2" fill="#0e1116"></circle>
    <circle cx="4" cy="26" r="1.2" fill="#0e1116"></circle>
    <circle cx="140" cy="10" r="1.2" fill="#0e1116"></circle>
    <circle cx="140" cy="26" r="1.2" fill="#0e1116"></circle>
    <g opacity="0.6">
      <line x1="14" y1="10" x2="14" y2="26" stroke="#0e1116" stroke-width="1.2"></line><line x1="19" y1="10" x2="19" y2="26" stroke="#0e1116" stroke-width="1.2"></line><line x1="24" y1="10" x2="24" y2="26" stroke="#0e1116" stroke-width="1.2"></line><line x1="29" y1="10" x2="29" y2="26" stroke="#0e1116" stroke-width="1.2"></line><line x1="34" y1="10" x2="34" y2="26" stroke="#0e1116" stroke-width="1.2"></line><line x1="39" y1="10" x2="39" y2="26" stroke="#0e1116" stroke-width="1.2"></line><line x1="44" y1="10" x2="44" y2="26" stroke="#0e1116" stroke-width="1.2"></line><line x1="49" y1="10" x2="49" y2="26" stroke="#0e1116" stroke-width="1.2"></line><line x1="54" y1="10" x2="54" y2="26" stroke="#0e1116" stroke-width="1.2"></line><line x1="59" y1="10" x2="59" y2="26" stroke="#0e1116" stroke-width="1.2"></line><line x1="64" y1="10" x2="64" y2="26" stroke="#0e1116" stroke-width="1.2"></line><line x1="69" y1="10" x2="69" y2="26" stroke="#0e1116" stroke-width="1.2"></line><line x1="74" y1="10" x2="74" y2="26" stroke="#0e1116" stroke-width="1.2"></line><line x1="79" y1="10" x2="79" y2="26" stroke="#0e1116" stroke-width="1.2"></line>
    </g>
    <circle cx="92" cy="18" r="2.5" fill="#ffb547"></circle>
    <circle cx="92" cy="18" r="5" fill="#ffb547" opacity="0.3"></circle>
    <rect x="104" y="8" width="28" height="20" rx="2" fill="#0e1116"></rect>
    <text x="118" y="22" text-anchor="middle" font-family="ui-monospace, &#39;JetBrains Mono&#39;, Menlo, Consolas, monospace" font-weight="700" font-size="14" fill="#e6e8ec">S</text>
  </g>
  <g transform="translate(56 172)">
    <rect width="144" height="36" rx="3" fill="#2a2f38" stroke="#3d4452" stroke-width="1"></rect>
    <rect x="0" y="6" width="8" height="24" fill="#3d4452"></rect>
    <rect x="136" y="6" width="8" height="24" fill="#3d4452"></rect>
    <circle cx="4" cy="10" r="1.2" fill="#0e1116"></circle>
    <circle cx="4" cy="26" r="1.2" fill="#0e1116"></circle>
    <circle cx="140" cy="10" r="1.2" fill="#0e1116"></circle>
    <circle cx="140" cy="26" r="1.2" fill="#0e1116"></circle>
    <g opacity="0.6">
      <line x1="14" y1="10" x2="14" y2="26" stroke="#0e1116" stroke-width="1.2"></line><line x1="19" y1="10" x2="19" y2="26" stroke="#0e1116" stroke-width="1.2"></line><line x1="24" y1="10" x2="24" y2="26" stroke="#0e1116" stroke-width="1.2"></line><line x1="29" y1="10" x2="29" y2="26" stroke="#0e1116" stroke-width="1.2"></line><line x1="34" y1="10" x2="34" y2="26" stroke="#0e1116" stroke-width="1.2"></line><line x1="39" y1="10" x2="39" y2="26" stroke="#0e1116" stroke-width="1.2"></line><line x1="44" y1="10" x2="44" y2="26" stroke="#0e1116" stroke-width="1.2"></line><line x1="49" y1="10" x2="49" y2="26" stroke="#0e1116" stroke-width="1.2"></line><line x1="54" y1="10" x2="54" y2="26" stroke="#0e1116" stroke-width="1.2"></line><line x1="59" y1="10" x2="59" y2="26" stroke="#0e1116" stroke-width="1.2"></line><line x1="64" y1="10" x2="64" y2="26" stroke="#0e1116" stroke-width="1.2"></line><line x1="69" y1="10" x2="69" y2="26" stroke="#0e1116" stroke-width="1.2"></line><line x1="74" y1="10" x2="74" y2="26" stroke="#0e1116" stroke-width="1.2"></line><line x1="79" y1="10" x2="79" y2="26" stroke="#0e1116" stroke-width="1.2"></line>
    </g>
    <circle cx="92" cy="18" r="2.5" fill="#5eff8a"></circle>
    <circle cx="92" cy="18" r="5" fill="#5eff8a" opacity="0.3"></circle>
    <rect x="104" y="8" width="28" height="20" rx="2" fill="#0e1116"></rect>
    <text x="118" y="22" text-anchor="middle" font-family="ui-monospace, &#39;JetBrains Mono&#39;, Menlo, Consolas, monospace" font-weight="700" font-size="14" fill="#e6e8ec">H</text>
  </g>
</svg>